<?xml version="1.0" standalone="no"?>
<!DOCTYPE svg PUBLIC "-//W3C//DTD SVG 20010904//EN"
 "http://www.w3.org/TR/2001/REC-SVG-20010904/DTD/svg10.dtd">
<svg version="1.0" xmlns="http://www.w3.org/2000/svg"
 width="256.000000pt" height="256.000000pt" viewBox="0 0 256.000000 256.000000"
 preserveAspectRatio="xMidYMid meet">
<metadata>
Created by potrace 1.16, written by Peter Selinger 2001-2019
</metadata>
<g transform="translate(0.000000,256.000000) scale(0.100000,-0.100000)"
fill="#000000" stroke="none">
<path d="M280 1881 l25 -9 -25 -1 c-14 -1 -40 -10 -58 -21 -38 -23 -46 -25
-37 -7 4 6 -7 -4 -24 -23 -17 -19 -31 -39 -31 -45 0 -5 10 5 21 23 12 17 23
32 26 32 2 0 -6 -17 -19 -37 -21 -35 -23 -53 -29 -211 -6 -193 -13 -215 -80
-237 -33 -11 -34 -14 -37 -67 l-3 -55 41 -12 c65 -19 72 -38 78 -224 3 -104 9
-174 18 -196 17 -41 17 -44 2 -35 -7 4 -2 -5 12 -20 27 -30 71 -56 92 -56 7 0
-5 9 -27 19 -22 10 -47 26 -55 36 -9 11 -1 8 23 -8 38 -26 114 -47 167 -47
l30 0 0 64 0 63 -41 6 c-71 9 -73 16 -79 205 -3 106 -10 175 -18 189 -15 28
-15 36 1 27 6 -4 1 5 -12 19 l-24 27 20 23 c11 12 18 28 15 36 -2 8 -1 11 4 8
5 -3 10 9 10 26 13 300 16 336 35 353 12 10 42 19 74 22 l55 4 0 -361 c0 -392
2 -407 54 -449 23 -18 163 -58 172 -50 2 2 6 33 10 69 l6 65 -40 12 c-31 10
-43 19 -51 44 -7 20 -11 163 -11 414 l0 384 -124 0 c-68 0 -139 2 -157 5 -29
4 -30 3 -9 -4z"/>
<path d="M2203 1883 l-53 -4 0 -65 0 -64 40 0 c30 0 47 -7 65 -25 24 -23 25
-30 25 -149 0 -155 12 -217 52 -262 l31 -35 -26 -27 c-41 -43 -49 -77 -54
-244 -7 -178 -9 -183 -84 -196 l-44 -7 -3 -63 -3 -62 35 0 c59 0 134 20 173
47 30 20 34 21 20 5 -10 -11 -32 -26 -48 -32 -16 -7 -28 -15 -25 -17 8 -8 60
24 86 53 14 15 19 24 11 19 -9 -5 -12 -3 -9 6 3 8 11 14 18 14 7 0 15 7 17 15
4 13 3 13 -7 0 -10 -12 -11 -12 -5 5 4 11 11 96 15 189 9 191 18 217 81 226
l34 5 0 65 c0 65 0 65 -30 68 -66 8 -85 63 -85 255 -1 173 -25 221 -132 258
-43 14 -48 18 -27 22 28 5 8 5 -68 0z"/>
<path d="M960 1579 c-36 -5 -72 -6 -80 -4 -8 2 -22 0 -30 -6 -12 -8 -9 -9 10
-4 16 4 11 -2 -15 -16 -62 -33 -121 -96 -151 -163 -25 -53 -28 -73 -28 -151 0
-119 27 -191 96 -258 27 -27 41 -44 30 -38 -11 6 -39 32 -62 58 -24 27 -38 39
-32 28 20 -38 89 -97 118 -100 16 -2 54 -11 84 -19 68 -20 125 -20 215 -1 79
17 89 18 60 4 l-20 -9 20 3 c11 1 20 9 20 17 0 8 7 15 15 15 8 0 16 9 17 20 3
19 3 19 -5 1 -7 -15 -11 -6 -21 42 -9 46 -17 62 -32 67 -11 4 -23 4 -26 1 -4
-3 2 -7 13 -7 31 -2 -77 -27 -122 -28 -22 -1 -64 6 -92 14 -58 18 -99 62 -108
117 l-6 33 211 -3 211 -3 0 74 c0 83 -20 161 -51 201 -12 15 -19 29 -16 32 3
3 17 -14 31 -38 14 -24 26 -38 26 -32 0 13 -54 89 -71 100 -8 4 -10 3 -5 -4
11 -18 -10 -14 -25 5 -12 14 -12 16 0 8 10 -5 12 -4 7 4 -4 6 -11 9 -14 7 -4
-2 -32 4 -61 14 -38 12 -48 19 -35 23 28 7 -3 6 -76 -4z m78 -155 c26 -18 52
-65 52 -93 0 -19 -8 -20 -130 -23 -76 -2 -130 1 -130 6 0 25 42 93 67 108 35
22 111 23 141 2z"/>
<path d="M1462 1578 c23 -6 23 -6 -2 -7 -41 -2 -103 -36 -137 -74 -36 -41 -50
-104 -37 -164 4 -21 8 -43 7 -50 0 -6 15 -26 35 -45 19 -18 31 -27 27 -19 -5
9 -3 12 6 9 8 -3 13 -10 12 -16 -2 -7 4 -9 14 -5 11 4 14 3 9 -5 -4 -7 -2 -10
7 -7 15 6 143 -48 169 -72 22 -20 23 -56 2 -77 -20 -21 -148 -21 -219 -2 -27
8 -41 15 -31 15 11 1 17 4 13 7 -3 3 -14 3 -25 0 -15 -5 -23 -22 -32 -68 -9
-46 -14 -58 -22 -47 -8 12 -9 12 -5 -1 2 -8 10 -15 18 -15 8 0 14 -6 14 -14 0
-8 7 -16 15 -18 13 -4 13 -3 0 7 -12 10 -10 11 10 5 14 -3 58 -11 98 -18 85
-13 196 2 250 33 37 22 46 25 37 10 -10 -16 1 -11 16 7 12 14 12 16 0 8 -9 -5
-6 5 7 27 43 69 39 161 -10 224 -13 16 -68 49 -137 81 -64 30 -119 60 -123 66
-4 7 -8 24 -8 40 0 20 7 30 26 37 29 12 111 13 169 3 36 -6 38 -7 15 -14 -20
-6 -21 -7 -5 -8 34 -1 47 14 60 73 l13 57 -26 10 c-14 5 -46 13 -71 16 -43 7
-44 8 -16 13 17 3 -14 5 -68 5 -54 0 -88 -3 -75 -7z"/>
<path d="M1945 1582 c14 -3 5 -9 -30 -19 -27 -8 -58 -15 -67 -17 -35 -5 -98
-82 -98 -118 0 -7 9 5 19 27 10 22 31 51 47 65 l29 25 -27 -30 c-57 -64 -72
-139 -39 -210 25 -54 41 -67 157 -121 117 -54 134 -68 134 -105 0 -38 -24 -49
-109 -49 -86 0 -182 20 -155 32 14 6 12 7 -8 3 -24 -5 -27 -2 -30 27 -2 18 -5
2 -6 -37 -4 -96 -6 -135 -10 -135 -9 0 -18 46 -10 51 6 4 8 15 6 25 -2 15 -5
14 -15 -8 -15 -34 3 -71 37 -73 14 -2 60 -8 103 -16 91 -15 209 -1 265 31 39
23 46 25 36 8 -4 -7 3 -4 15 7 24 21 55 74 48 81 -2 3 -10 -9 -17 -25 -7 -17
-18 -35 -25 -41 -7 -6 -2 11 12 37 19 39 23 60 21 115 -2 36 -7 66 -12 65 -5
-1 -11 4 -14 12 -3 9 0 11 9 6 8 -4 -5 12 -28 34 -29 28 -47 39 -59 34 -12 -4
-15 -3 -10 5 4 8 2 10 -7 6 -8 -3 -51 11 -96 32 -60 27 -83 43 -87 60 -8 33 3
61 29 68 33 9 127 7 172 -4 22 -5 41 -7 43 -5 7 7 33 117 29 122 -3 2 -45 10
-93 18 -94 14 -193 25 -159 17z"/>
</g>
</svg>
